<svg width="144" height="42" viewBox="0 0 144 42" fill="none" xmlns="http://www.w3.org/2000/svg">
<path d="M3.8523 16.877C4.4155 15.9536 5.15893 15.239 6.08258 14.7334C7.02876 14.2057 8.1439 13.9419 9.428 13.9419V17.8333H8.44803C6.93865 17.8333 5.78971 18.2071 5.00123 18.9546C4.23528 19.7021 3.8523 20.9992 3.8523 22.846V32.4097H0V14.2387H3.8523V16.877Z" fill="#ED1C25"/>
<path d="M29.392 22.879C29.392 23.5605 29.3469 24.1761 29.2568 24.7258H15.0304C15.143 26.1768 15.6949 27.342 16.6862 28.2215C17.6774 29.1009 18.8939 29.5406 20.3357 29.5406C22.4083 29.5406 23.8726 28.6942 24.7287 27.0013H28.8851C28.3219 28.6722 27.2969 30.0463 25.81 31.1236C24.3457 32.1789 22.5209 32.7065 20.3357 32.7065C18.556 32.7065 16.9565 32.3218 15.5372 31.5523C14.1405 30.7608 13.0366 29.6615 12.2256 28.2544C11.4371 26.8254 11.0429 25.1765 11.0429 23.3077C11.0429 21.4389 11.4259 19.801 12.1918 18.394C12.9803 16.9649 14.0729 15.8656 15.4697 15.0961C16.8889 14.3266 18.5109 13.9419 20.3357 13.9419C22.0929 13.9419 23.6586 14.3156 25.0328 15.0632C26.407 15.8107 27.4771 16.866 28.2431 18.2291C29.009 19.5702 29.392 21.1202 29.392 22.879ZM25.3707 21.6918C25.3482 20.3067 24.8413 19.1964 23.8501 18.361C22.8589 17.5255 21.6311 17.1078 20.1668 17.1078C18.8376 17.1078 17.6999 17.5255 16.7538 18.361C15.8076 19.1744 15.2444 20.2847 15.0641 21.6918H25.3707Z" fill="#ED1C25"/>
<path d="M36.3933 16.9099C37.0466 16.0745 37.9365 15.3709 39.0629 14.7993C40.1893 14.2277 41.4621 13.9419 42.8814 13.9419C44.5034 13.9419 45.979 14.3376 47.3081 15.1291C48.6598 15.8986 49.7186 16.9869 50.4846 18.394C51.2506 19.801 51.6335 21.417 51.6335 23.2418C51.6335 25.0666 51.2506 26.7045 50.4846 28.1555C49.7186 29.5846 48.6598 30.7058 47.3081 31.5193C45.979 32.3108 44.5034 32.7065 42.8814 32.7065C41.4621 32.7065 40.2005 32.4317 39.0967 31.8821C37.9928 31.3104 37.0917 30.6069 36.3933 29.7714V41.05H32.541V14.2387H36.3933V16.9099ZM47.7137 23.2418C47.7137 21.9886 47.4433 20.9113 46.9026 20.0099C46.3845 19.0865 45.6861 18.394 44.8075 17.9323C43.9515 17.4486 43.0278 17.2067 42.0366 17.2067C41.0679 17.2067 40.1442 17.4486 39.2656 17.9323C38.4096 18.4159 37.7112 19.1195 37.1705 20.0429C36.6524 20.9663 36.3933 22.0545 36.3933 23.3077C36.3933 24.5609 36.6524 25.6602 37.1705 26.6055C37.7112 27.5289 38.4096 28.2325 39.2656 28.7161C40.1442 29.1998 41.0679 29.4417 42.0366 29.4417C43.0278 29.4417 43.9515 29.1998 44.8075 28.7161C45.6861 28.2105 46.3845 27.485 46.9026 26.5396C47.4433 25.5942 47.7137 24.4949 47.7137 23.2418Z" fill="white"/>
<path d="M62.8773 32.7065C61.1201 32.7065 59.5319 32.3218 58.1126 31.5523C56.6934 30.7608 55.5782 29.6615 54.7672 28.2544C53.9562 26.8254 53.5507 25.1765 53.5507 23.3077C53.5507 21.4609 53.9675 19.823 54.801 18.394C55.6346 16.9649 56.7722 15.8656 58.214 15.0961C59.6558 14.3266 61.2666 13.9419 63.0463 13.9419C64.826 13.9419 66.4368 14.3266 67.8786 15.0961C69.3204 15.8656 70.458 16.9649 71.2916 18.394C72.1251 19.823 72.5419 21.4609 72.5419 23.3077C72.5419 25.1545 72.1138 26.7924 71.2578 28.2215C70.4017 29.6505 69.2302 30.7608 67.7434 31.5523C66.2791 32.3218 64.657 32.7065 62.8773 32.7065ZM62.8773 29.4417C63.8686 29.4417 64.7922 29.2108 65.6483 28.7491C66.5269 28.2874 67.2365 27.5949 67.7772 26.6715C68.3179 25.7481 68.5882 24.6268 68.5882 23.3077C68.5882 21.9886 68.3291 20.8783 67.811 19.9769C67.2928 19.0535 66.6057 18.361 65.7497 17.8993C64.8936 17.4376 63.9699 17.2067 62.9787 17.2067C61.9875 17.2067 61.0638 17.4376 60.2078 17.8993C59.3742 18.361 58.7096 19.0535 58.214 19.9769C57.7184 20.8783 57.4706 21.9886 57.4706 23.3077C57.4706 25.2644 57.9775 26.7814 58.9912 27.8587C60.0275 28.914 61.3229 29.4417 62.8773 29.4417Z" fill="white"/>
<path d="M79.5603 16.877C80.1235 15.9536 80.867 15.239 81.7906 14.7334C82.7368 14.2057 83.8519 13.9419 85.136 13.9419V17.8333H84.1561C82.6467 17.8333 81.4977 18.2071 80.7093 18.9546C79.9433 19.7021 79.5603 20.9992 79.5603 22.846V32.4097H75.708V14.2387H79.5603V16.877Z" fill="white"/>
<path d="M97.4292 13.9419C98.8935 13.9419 100.2 14.2387 101.349 14.8323C102.521 15.4259 103.433 16.3053 104.086 17.4706C104.74 18.6358 105.066 20.0429 105.066 21.6918V32.4097H101.248V22.2524C101.248 20.6255 100.831 19.3833 99.9974 18.5259C99.1639 17.6464 98.0262 17.2067 96.5844 17.2067C95.1426 17.2067 93.9937 17.6464 93.1376 18.5259C92.3041 19.3833 91.8873 20.6255 91.8873 22.2524V32.4097H88.035V14.2387H91.8873V16.3163C92.5181 15.5688 93.3178 14.9862 94.2866 14.5685C95.2778 14.1508 96.3253 13.9419 97.4292 13.9419Z" fill="white"/>
<path d="M110.892 32.6406C110.194 32.6406 109.608 32.4097 109.135 31.948C108.662 31.4863 108.426 30.9147 108.426 30.2331C108.426 29.5516 108.662 28.98 109.135 28.5183C109.608 28.0566 110.194 27.8257 110.892 27.8257C111.568 27.8257 112.143 28.0566 112.616 28.5183C113.089 28.98 113.326 29.5516 113.326 30.2331C113.326 30.9147 113.089 31.4863 112.616 31.948C112.143 32.4097 111.568 32.6406 110.892 32.6406Z" fill="white"/>
<path d="M115.563 23.2418C115.563 21.417 115.946 19.801 116.712 18.394C117.5 16.9869 118.559 15.8986 119.888 15.1291C121.24 14.3376 122.727 13.9419 124.349 13.9419C125.813 13.9419 127.086 14.2277 128.167 14.7993C129.271 15.349 130.15 16.0415 130.803 16.877V14.2387H134.689V32.4097H130.803V29.7055C130.15 30.5629 129.26 31.2775 128.134 31.8491C127.007 32.4207 125.723 32.7065 124.281 32.7065C122.682 32.7065 121.217 32.3108 119.888 31.5193C118.559 30.7058 117.5 29.5846 116.712 28.1555C115.946 26.7045 115.563 25.0666 115.563 23.2418ZM130.803 23.3077C130.803 22.0545 130.533 20.9663 129.992 20.0429C129.474 19.1195 128.787 18.4159 127.931 17.9323C127.075 17.4486 126.151 17.2067 125.16 17.2067C124.169 17.2067 123.245 17.4486 122.389 17.9323C121.533 18.394 120.834 19.0865 120.294 20.0099C119.776 20.9113 119.517 21.9886 119.517 23.2418C119.517 24.4949 119.776 25.5942 120.294 26.5396C120.834 27.485 121.533 28.2105 122.389 28.7161C123.268 29.1998 124.191 29.4417 125.16 29.4417C126.151 29.4417 127.075 29.1998 127.931 28.7161C128.787 28.2325 129.474 27.5289 129.992 26.6055C130.533 25.6602 130.803 24.5609 130.803 23.3077Z" fill="white"/>
<path d="M141.067 11.8313C140.369 11.8313 139.783 11.6004 139.31 11.1387C138.837 10.677 138.6 10.1054 138.6 9.42387C138.6 8.74232 138.837 8.1707 139.31 7.709C139.783 7.24731 140.369 7.01646 141.067 7.01646C141.743 7.01646 142.317 7.24731 142.79 7.709C143.263 8.1707 143.5 8.74232 143.5 9.42387C143.5 10.1054 143.263 10.677 142.79 11.1387C142.317 11.6004 141.743 11.8313 141.067 11.8313ZM142.959 14.2387V32.4097H139.107V14.2387H142.959Z" fill="white"/>
<path d="M13.306 12.8497C13.0021 12.8644 12.7052 12.5388 12.5461 12.3559C12.3182 12.0938 11.7483 11.3866 11.2924 10.655C10.7225 9.74048 10.2855 8.78942 10.1336 6.63124C9.9816 4.47306 10.9314 1.83935 11.2734 0.870003C11.3114 2.20515 12.1472 3.90608 12.8121 4.89373C13.477 5.88137 15.0157 6.79585 16.2315 7.21651C17.4473 7.63717 17.1433 8.18586 16.9534 9.15521C16.7634 10.1246 16.3455 11.039 15.4336 11.8804C14.5218 12.7217 13.6859 12.8314 13.306 12.8497Z" fill="#ED1C25"/>
<path d="M26.6518 12.8497C26.9503 12.8644 27.2419 12.5388 27.3981 12.3559C27.622 12.0938 28.1817 11.3866 28.6295 10.655C29.1892 9.74048 29.6184 8.78942 29.7676 6.63124C29.9169 4.47306 28.984 1.83935 28.6482 0.870003C28.6109 2.20515 27.7899 3.90608 27.1369 4.89373C26.4839 5.88137 24.9727 6.79585 23.7786 7.21651C22.5845 7.63717 22.883 8.18586 23.0696 9.15521C23.2562 10.1246 23.6666 11.039 24.5622 11.8804C25.4578 12.7217 26.2787 12.8314 26.6518 12.8497Z" fill="#ED1C25"/>
</svg>
